<?xml version="1.0" encoding="utf-8"?>
<svg xmlns="http://www.w3.org/2000/svg" viewBox="0.116 0.268 9.985 11.095" version="1.1" x="0px" y="0px">
  <g transform="matrix(1, 0, 0, 1, -0.183168, 0.523833)">
    <path style="color:#000000;" d="m 3.0608596,1.0198062 a 0.26458349,0.26458349 0 0 0 -0.2532141,0.201539 0.26458349,0.26458349 0 0 0 0.1932701,0.320394 l 0.277503,0.06976 c -1.4806348,0.649253 -2.48408559,2.125753 -2.48408559,3.801316 0,0.344726 0.0417036,0.687536 0.12660577,1.021644 a 0.26458299,0.26458299 0 0 0 0.32246092,0.191207 0.26458299,0.26458299 0 0 0 0.1912038,-0.320395 c -0.074081,-0.291512 -0.1111038,-0.59168 -0.1111038,-0.892453 0,-1.492951 0.9065709,-2.800979 2.24069,-3.349664 l -0.2640673,0.345715 a 0.26458349,0.26458349 0 0 0 0.048575,0.371036 0.26458349,0.26458349 0 0 0 0.3710384,-0.04857 l 0.7518903,-0.984435 a 0.26460995,0.26460995 0 0 0 0.00106,-0.0011 0.26458299,0.26458299 0 0 0 0.00878,-0.01291 0.26460995,0.26460995 0 0 0 0.00265,-0.0036 0.26458299,0.26458299 0 0 0 0.00159,-0.0031 0.26460995,0.26460995 0 0 0 0.00878,-0.01394 0.26458299,0.26458299 0 0 0 0.00413,-0.0083 0.26460995,0.26460995 0 0 0 0.00466,-0.0093 0.26458299,0.26458299 0 0 0 0.00265,-0.0062 0.26460995,0.26460995 0 0 0 0.00516,-0.01241 0.26458299,0.26458299 0 0 0 0.00106,-0.0031 0.26460995,0.26460995 0 0 0 0.014473,-0.0739 0.26458299,0.26458299 0 0 0 0,-5.29e-4 0.26460995,0.26460995 0 0 0 -0.1989534,-0.26975 l -1.1973556,-0.3007 a 0.26458349,0.26458349 0 0 0 -0.069247,-0.0083 z m 2.5569492,0.302824 a 0.26458299,0.26458299 0 0 0 -0.2495947,0.21704 0.26458299,0.26458299 0 0 0 0.214974,0.306959 c 1.729658,0.308923 2.9863785,1.809724 2.9863785,3.566189 0,0.01553 -2.646e-4,0.03099 -5.292e-4,0.04651 L 8.4150552,5.1394512 A 0.26458349,0.26458349 0 0 0 8.0615878,5.0143962 0.26458349,0.26458349 0 0 0 7.9385989,5.3678602 l 0.5369189,1.117246 a 0.26460995,0.26460995 0 0 0 0.2914544,0.143145 0.26458299,0.26458299 0 0 0 0.00106,-5.29e-4 0.26460995,0.26460995 0 0 0 0.1059391,-0.04806 0.26458299,0.26458299 0 0 0 0.00106,-0.0011 0.26460995,0.26460995 0 0 0 0.03824,-0.03514 l 0.810805,-0.931209 a 0.26458349,0.26458349 0 0 0 -0.02585,-0.373102 0.26458349,0.26458349 0 0 0 -0.3725862,0.02532 l -0.2284122,0.262517 c 0.00106,-0.03803 0.00159,-0.07612 0.00159,-0.114208 0,-2.009399 -1.4434925,-3.732683 -3.4220123,-4.086053 a 0.26458299,0.26458299 0 0 0 -0.058912,-0.0041 z m -3.7796125,6.14898 a 0.26458299,0.26458299 0 0 0 -0.019129,0.0016 0.26458299,0.26458299 0 0 0 -0.064595,0.01085 0.26460995,0.26460995 0 0 0 -0.00775,0.0026 0.26458299,0.26458299 0 0 0 -0.043926,0.01913 0.26460995,0.26460995 0 0 0 -0.019129,0.01138 0.26458299,0.26458299 0 0 0 -0.012409,0.0072 0.26458299,0.26458299 0 0 0 -0.010345,0.0093 0.26460995,0.26460995 0 0 0 -0.00516,0.0052 0.26458299,0.26458299 0 0 0 -0.040307,0.04444 0.26460995,0.26460995 0 0 0 -0.00619,0.0093 0.26458299,0.26458299 0 0 0 -0.021696,0.04031 0.26460995,0.26460995 0 0 0 -0.00878,0.02326 0.26458299,0.26458299 0 0 0 -0.00619,0.02066 0.26460995,0.26460995 0 0 0 -0.00619,0.04496 0.26458299,0.26458299 0 0 0 -5.292e-4,0.0155 0.26460995,0.26460995 0 0 0 0.00362,0.04651 l 5.292e-4,0.0021 a 0.26458299,0.26458299 0 0 0 5.292e-4,0.0026 l 0.2216917,1.210262 a 0.26458349,0.26458349 0 0 0 0.3085095,0.212908 0.26458349,0.26458349 0 0 0 0.2129049,-0.308509 l -0.06201,-0.33228 c 0.7440453,0.634206 1.6973814,0.992703 2.6949241,0.992703 1.3104124,0 2.5443179,-0.618072 3.3279635,-1.668113 a 0.26458299,0.26458299 0 0 0 -0.054777,-0.371038 0.26458299,0.26458299 0 0 0 -0.3689694,0.05478 c -0.684022,0.916554 -1.7603152,1.454693 -2.9042174,1.454693 -0.860171,0 -1.6823293,-0.304134 -2.3280211,-0.84491 l 0.3591507,0.08165 A 0.26458349,0.26458349 0 0 0 3.2959869,8.0710552 0.26458349,0.26458349 0 0 0 3.0970335,7.7547962 l -1.19321,-0.271819 a 0.26458299,0.26458299 0 0 0 -0.036171,-0.0072 0.26458299,0.26458299 0 0 0 -0.013944,-0.0021 0.26460995,0.26460995 0 0 0 -0.00212,0 0.26458299,0.26458299 0 0 0 -0.013441,-0.0021 z" fill="#000000" stroke-width="1" stroke-linecap="round" stroke-linejoin="round"/>
  </g>
</svg>