<?xml version="1.0" encoding="utf-8"?>
<svg xmlns="http://www.w3.org/2000/svg" version="1.1" viewBox="8 1.7 84 112">
  <path d="M 80.238 35.118 C 81.988 33.036 82.965 30.411 83 27.692 C 83 22.481 79.289 17.755 72.559 14.383 C 66.481 11.34 58.473 9.665 50 9.665 C 41.527 9.665 33.52 11.34 27.441 14.383 C 20.71 17.758 17 22.485 17 27.695 C 17.039 30.414 18.016 33.039 19.762 35.121 C 16.051 39.422 16.082 45.801 19.836 50.062 C 16.055 54.359 16.055 60.796 19.836 65.093 C 16.055 69.39 16.055 75.827 19.836 80.124 C 18.043 82.222 17.039 84.882 17 87.64 C 17 92.851 20.711 97.577 27.441 100.949 C 33.519 103.988 41.527 105.664 50 105.664 C 58.473 105.664 66.48 103.988 72.559 100.945 C 79.289 97.57 83 92.843 83 87.633 C 82.961 84.875 81.957 82.215 80.164 80.117 C 83.945 75.82 83.945 69.383 80.164 65.086 C 83.945 60.789 83.945 54.352 80.164 50.055 C 83.918 45.797 83.949 39.418 80.238 35.117 L 80.238 35.118 Z M 29.3 65.091 C 34.101 62.458 41.331 60.576 49.999 60.576 C 58.667 60.576 65.905 62.458 70.698 65.091 C 65.905 67.724 58.667 69.607 49.999 69.607 C 41.331 69.607 34.101 67.724 29.3 65.091 Z M 70.698 80.118 C 65.905 82.755 58.667 84.634 49.999 84.634 C 41.331 84.634 34.101 82.751 29.3 80.118 C 34.101 77.485 41.331 75.603 49.999 75.603 C 58.667 75.606 65.905 77.485 70.698 80.118 Z M 29.3 50.063 C 33.476 47.762 39.499 46.044 46.698 45.637 C 47.788 45.692 48.886 45.723 49.999 45.723 C 51.108 45.723 52.21 45.696 53.3 45.637 C 60.507 46.044 66.527 47.766 70.698 50.059 C 65.905 52.692 58.667 54.575 49.999 54.575 C 41.331 54.575 34.101 52.692 29.3 50.063 Z M 49.999 39.543 C 48.89 39.543 47.792 39.57 46.698 39.629 C 39.398 39.215 33.315 37.453 29.139 35.117 C 33.929 32.438 41.229 30.516 49.998 30.516 C 58.764 30.516 66.064 32.442 70.857 35.117 C 66.682 37.453 60.595 39.219 53.298 39.629 C 52.209 39.574 51.107 39.547 49.998 39.543 L 49.999 39.543 Z M 31.229 42.633 C 29.936 43.106 28.671 43.649 27.44 44.262 C 26.37 44.797 25.331 45.395 24.335 46.055 C 23.518 45.063 23.049 43.828 22.999 42.543 C 23.046 41.309 23.483 40.121 24.249 39.153 C 25.272 39.836 26.339 40.457 27.44 41.004 C 28.675 41.617 29.936 42.16 31.229 42.633 Z M 24.339 54.063 C 25.335 54.723 26.374 55.321 27.444 55.856 C 28.753 56.508 30.1 57.083 31.479 57.575 C 30.1 58.067 28.753 58.641 27.444 59.294 C 26.374 59.829 25.335 60.426 24.339 61.087 C 22.553 59.09 22.553 56.067 24.339 54.063 Z M 24.339 69.094 C 25.335 69.754 26.374 70.352 27.444 70.887 C 28.753 71.539 30.1 72.114 31.479 72.606 C 30.1 73.098 28.753 73.672 27.444 74.325 C 26.374 74.86 25.335 75.457 24.339 76.118 C 22.553 74.118 22.553 71.098 24.339 69.094 Z M 49.999 99.664 C 34.089 99.664 22.999 93.324 22.999 87.633 C 23.049 86.348 23.518 85.113 24.338 84.121 C 25.335 84.781 26.374 85.379 27.444 85.914 C 33.518 88.957 41.53 90.633 50.003 90.633 C 58.476 90.633 66.483 88.957 72.562 85.914 C 73.632 85.379 74.671 84.781 75.667 84.121 C 76.48 85.113 76.949 86.348 76.999 87.633 C 76.999 93.324 65.909 99.664 49.999 99.664 Z M 75.659 76.117 C 74.663 75.457 73.623 74.859 72.553 74.324 C 71.245 73.672 69.897 73.097 68.518 72.605 C 69.897 72.113 71.245 71.539 72.553 70.886 C 73.623 70.351 74.659 69.754 75.655 69.093 C 77.44 71.097 77.44 74.117 75.655 76.121 L 75.659 76.117 Z M 75.659 61.086 C 74.663 60.426 73.627 59.828 72.557 59.293 C 71.248 58.641 69.901 58.066 68.522 57.574 C 69.901 57.082 71.248 56.508 72.557 55.855 C 73.627 55.324 74.663 54.723 75.659 54.066 C 77.444 56.07 77.444 59.09 75.659 61.094 L 75.659 61.086 Z M 75.659 46.059 C 74.663 45.399 73.623 44.801 72.553 44.266 C 71.323 43.653 70.057 43.11 68.764 42.637 C 70.057 42.164 71.323 41.621 72.553 41.008 C 73.655 40.457 74.721 39.84 75.745 39.157 C 76.51 40.125 76.948 41.313 76.995 42.547 C 76.948 43.828 76.479 45.063 75.659 46.059 Z M 75.749 31.086 C 74.725 30.402 73.659 29.781 72.557 29.234 C 66.479 26.191 58.471 24.516 49.998 24.516 C 41.525 24.516 33.518 26.191 27.439 29.234 C 26.338 29.785 25.271 30.402 24.248 31.086 C 23.482 30.117 23.045 28.93 22.998 27.695 C 22.998 22.004 34.088 15.664 49.998 15.664 C 65.908 15.664 76.998 22.004 76.998 27.695 C 76.951 28.93 76.513 30.117 75.748 31.086 L 75.749 31.086 Z" style=""/>
</svg>