<?xml version="1.0" encoding="utf-8"?>
<svg xmlns="http://www.w3.org/2000/svg" data-name="Layer 1" viewBox="0 0 100 125" x="0px" y="0px">
  <title>Artboard 2</title>
  <path d="M 34.08 58.673 C 34.354 58.619 34.631 58.579 34.91 58.553 C 35.166 58.538 35.423 58.538 35.68 58.553 C 36.122 58.584 36.554 58.703 36.95 58.903 C 37.595 59.192 38.04 59.8 38.12 60.503 C 38.22 61.913 36.8 62.563 35.32 63.143 C 32.714 64.115 30.493 65.904 28.99 68.243 C 27.494 70.573 26.874 73.359 27.24 76.103 C 27.24 76.543 27.4 76.963 27.46 77.403 C 27.52 77.843 27.69 78.253 27.84 78.673 C 28.674 80.248 29.813 81.642 31.19 82.773 C 32.576 83.88 34.176 84.687 35.89 85.143 C 39.505 86.056 43.338 85.198 46.22 82.833 C 48.67 80.696 50.763 78.181 52.42 75.383 C 52.94 74.513 53.61 73.803 54.33 74.383 C 54.825 74.843 55.108 75.487 55.11 76.163 C 54.661 79.41 53.329 82.471 51.26 85.013 C 50.214 86.263 49.01 87.372 47.68 88.313 C 46.321 89.224 44.844 89.944 43.29 90.453 C 40.173 91.444 36.826 91.444 33.71 90.453 C 32.193 89.967 30.769 89.226 29.5 88.263 C 28.252 87.345 27.176 86.215 26.32 84.923 C 23.945 82.461 22.408 79.311 21.93 75.923 C 21.717 74.209 21.765 72.473 22.07 70.773 C 22.405 69.064 23.02 67.422 23.89 65.913 C 26.079 62.139 29.796 59.499 34.08 58.673 Z M 64.08 81.143 Z M 1.34 74.143 L 1.34 75.763 C 1.316 76.514 1.397 77.264 1.58 77.993 C 2.053 79.667 3.197 81.071 4.74 81.873 C 5.138 82.075 5.557 82.233 5.99 82.343 C 6.19 82.403 6.4 82.443 6.61 82.483 L 7.03 82.553 L 8.63 82.813 L 10.51 83.113 C 11.015 84.602 11.64 86.046 12.38 87.433 L 11.58 88.603 L 10.81 89.743 L 10.42 90.313 L 10.23 90.593 L 9.97 91.003 C 8.703 93.156 8.902 95.869 10.47 97.813 C 10.663 98.045 10.87 98.265 11.09 98.473 C 11.037 98.346 10.977 98.223 10.91 98.103 C 10.981 98.221 11.041 98.345 11.09 98.473 L 13.57 101.243 L 13.9 101.603 C 14.067 101.777 14.244 101.941 14.43 102.093 C 14.807 102.405 15.22 102.67 15.66 102.883 C 16.551 103.313 17.531 103.525 18.52 103.503 C 19.522 103.483 20.506 103.226 21.39 102.753 L 21.71 102.563 L 21.98 102.393 L 22.37 102.143 L 23.15 101.633 L 24.81 100.503 C 26.03 101.165 27.297 101.736 28.6 102.213 L 28.84 103.743 L 29.09 105.343 L 29.16 105.753 C 29.16 105.983 29.25 106.213 29.31 106.433 C 29.437 106.887 29.612 107.326 29.83 107.743 C 30.709 109.441 32.251 110.701 34.09 111.223 C 34.873 111.426 35.681 111.517 36.49 111.493 L 40.71 111.493 C 41.186 111.467 41.658 111.394 42.12 111.273 C 43.991 110.777 45.573 109.528 46.49 107.823 C 46.702 107.402 46.87 106.959 46.99 106.503 C 47.06 106.273 47.11 106.043 47.16 105.813 L 47.24 105.383 L 47.52 103.783 L 47.8 102.503 C 49.007 102.09 50.186 101.599 51.33 101.033 L 52.45 101.813 L 53.78 102.743 L 54.13 102.983 C 54.33 103.113 54.53 103.243 54.74 103.353 C 55.159 103.582 55.602 103.767 56.06 103.903 C 57.904 104.464 59.897 104.239 61.57 103.283 C 61.98 103.045 62.365 102.767 62.72 102.453 L 62.98 102.213 L 63.14 102.053 L 63.43 101.763 L 64.57 100.613 L 65.71 99.463 C 65.92 99.243 66.02 99.163 66.4 98.743 C 66.714 98.388 66.992 98.003 67.23 97.593 C 68.177 95.92 68.394 93.931 67.83 92.093 C 67.693 91.639 67.508 91.2 67.28 90.783 C 67.17 90.573 67.04 90.373 66.91 90.183 L 66.67 89.833 L 65.74 88.503 L 64.99 87.353 C 65.573 86.19 66.08 84.991 66.51 83.763 C 67.457 83.476 68.357 83.052 69.18 82.503 C 70.32 81.503 68.56 81.213 66.02 81.173 C 65.4 81.173 64.78 81.173 64.08 81.173 C 63.117 83.263 61.945 85.25 60.58 87.103 C 60.396 87.351 60.372 87.682 60.52 87.953 L 60.62 88.143 C 61.353 89.477 62.123 90.837 62.93 92.223 L 63.23 92.733 C 63.288 92.846 63.338 92.963 63.38 93.083 C 63.458 93.316 63.501 93.558 63.51 93.803 C 63.529 94.276 63.403 94.743 63.15 95.143 C 63.031 95.335 62.882 95.507 62.71 95.653 L 61.81 96.473 L 59.99 98.123 L 59.53 98.553 C 59.445 98.627 59.355 98.694 59.26 98.753 C 59.09 98.864 58.905 98.948 58.71 99.003 C 58.33 99.127 57.92 99.127 57.54 99.003 C 57.425 98.96 57.315 98.907 57.21 98.843 L 56.72 98.493 L 55.41 97.503 L 52.82 95.613 C 52.133 95.131 51.229 95.088 50.5 95.503 L 50.42 95.503 C 48.559 96.527 46.572 97.304 44.51 97.813 C 43.644 98.029 42.981 98.727 42.81 99.603 L 42.81 99.703 L 42.19 102.873 L 41.85 104.503 L 41.77 104.883 C 41.77 104.883 41.77 104.983 41.77 105.033 C 41.737 105.128 41.693 105.218 41.64 105.303 C 41.437 105.643 41.105 105.885 40.72 105.973 C 40.66 106.043 39.16 105.973 38.17 105.973 L 36.55 105.973 L 35.9 105.973 C 35.812 105.964 35.725 105.948 35.64 105.923 C 35.311 105.814 35.04 105.576 34.89 105.263 C 34.854 105.187 34.827 105.106 34.81 105.023 C 34.81 105.023 34.81 104.943 34.81 104.903 L 34.75 104.533 L 34.49 102.933 L 33.97 99.733 C 33.792 98.669 33.011 97.806 31.97 97.523 L 31.9 97.523 C 29.9 96.956 27.981 96.136 26.19 95.083 C 25.235 94.522 24.042 94.565 23.13 95.193 L 20.47 97.033 L 19.14 97.953 L 18.82 98.173 L 18.73 98.233 C 18.666 98.267 18.599 98.294 18.53 98.313 C 18.252 98.396 17.953 98.363 17.7 98.223 C 17.7 98.323 16.64 97.223 15.93 96.523 L 14.78 95.383 L 14.49 95.103 L 14.36 94.973 C 14.312 94.92 14.268 94.863 14.23 94.803 C 14.076 94.544 14.033 94.234 14.11 93.943 C 14.128 93.87 14.155 93.8 14.19 93.733 C 14.19 93.733 14.19 93.673 14.25 93.633 L 14.46 93.323 L 15.37 91.983 L 17.19 89.293 L 17.25 89.213 C 17.831 88.348 17.858 87.225 17.32 86.333 C 17.107 85.98 16.903 85.623 16.71 85.263 C 15.981 83.76 15.411 82.185 15.01 80.563 C 14.74 79.54 13.908 78.763 12.87 78.563 L 12.76 78.563 L 9.19 77.673 L 7.82 77.413 L 7.51 77.353 L 7.42 77.353 L 7.25 77.283 C 7.038 77.168 6.874 76.98 6.79 76.753 C 6.747 76.645 6.723 76.53 6.72 76.413 L 6.72 75.173 L 6.72 72.373 L 6.72 72.023 C 6.72 71.893 6.72 71.943 6.72 71.893 C 6.716 71.84 6.716 71.786 6.72 71.733 C 6.788 71.618 6.88 71.519 6.99 71.443 C 7.116 71.268 7.3 71.144 7.51 71.093 L 12.74 70.193 C 13.915 69.99 14.867 69.124 15.18 67.973 C 15.718 65.987 16.508 64.079 17.53 62.293 C 18.122 61.259 18.059 59.975 17.37 59.003 L 15.5 56.353 L 14.56 55.033 L 14.34 54.723 C 14.34 54.723 14.34 54.723 14.29 54.643 C 14.256 54.59 14.229 54.533 14.21 54.473 C 14.131 54.229 14.149 53.964 14.26 53.733 C 14.292 53.677 14.329 53.623 14.37 53.573 L 14.5 53.443 L 14.78 53.153 L 15.91 51.993 C 16.6 51.293 17.65 50.163 17.63 50.253 C 17.881 50.091 18.188 50.036 18.48 50.103 C 18.556 50.118 18.629 50.141 18.7 50.173 L 18.81 50.223 L 19.14 50.443 L 20.49 51.343 L 23.19 53.123 L 23.32 53.213 C 24.158 53.75 25.232 53.75 26.07 53.213 C 26.737 52.807 27.403 52.43 28.07 52.083 C 29.35 51.443 30.6 50.913 31.72 50.463 L 32.21 50.263 C 32.885 49.988 33.344 49.351 33.39 48.623 C 33.61 45.333 33.39 43.043 32.34 43.153 C 31.57 43.243 30.71 44.533 29.89 46.753 C 28.513 47.007 27.171 47.42 25.89 47.983 C 25.56 48.123 25.24 48.303 24.89 48.463 L 23.26 47.253 L 21.96 46.253 L 21.63 46.003 C 21.46 45.883 21.28 45.763 21.1 45.663 C 20.748 45.46 20.376 45.292 19.99 45.163 C 18.35 44.63 16.563 44.796 15.05 45.623 C 14.402 46.003 13.809 46.471 13.29 47.013 L 12.12 48.133 L 10.99 49.253 L 10.7 49.533 L 10.54 49.693 L 10.32 49.933 C 10.026 50.256 9.764 50.608 9.54 50.983 C 8.644 52.52 8.423 54.358 8.93 56.063 C 9.053 56.486 9.221 56.895 9.43 57.283 C 9.53 57.483 9.65 57.663 9.77 57.853 L 10.01 58.203 L 10.9 59.503 L 11.9 60.893 C 11.8 61.083 11.69 61.273 11.6 61.463 C 11.069 62.586 10.612 63.742 10.23 64.923 L 8.58 65.223 L 6.99 65.503 L 6.57 65.583 C 6.36 65.583 6.14 65.673 5.93 65.743 C 5.51 65.867 5.105 66.034 4.72 66.243 C 3.163 67.085 2.024 68.533 1.57 70.243 C 1.461 70.665 1.394 71.098 1.37 71.533 C 1.37 72.043 1.37 72.183 1.37 72.533 L 1.34 74.143 Z M 39.62 42.363 C 39.99 44.363 40.52 45.553 41.21 45.363 C 41.9 45.173 42.39 43.943 42.8 41.983 C 42.974 41.385 43.442 40.917 44.04 40.743 C 44.197 40.707 44.358 40.687 44.52 40.683 L 45.59 40.503 C 46.317 40.417 47.077 40.313 47.87 40.193 L 48.53 40.093 C 49.275 39.968 49.886 39.435 50.11 38.713 L 50.11 38.613 C 50.579 37.033 51.251 35.52 52.11 34.113 C 52.546 33.43 52.546 32.556 52.11 31.873 L 52.05 31.783 L 50.64 29.703 L 49.93 28.643 L 49.76 28.383 L 49.76 28.303 C 49.738 28.252 49.721 28.198 49.71 28.143 C 49.662 27.922 49.705 27.692 49.83 27.503 C 49.76 27.503 50.65 26.703 51.2 26.153 L 52.12 25.263 L 52.35 25.043 L 52.45 24.943 L 52.57 24.863 C 52.743 24.791 52.937 24.791 53.11 24.863 L 53.23 24.923 L 53.53 25.133 L 54.53 25.883 L 56.61 27.373 C 57.401 27.938 58.448 27.989 59.29 27.503 C 60.694 26.711 62.192 26.1 63.75 25.683 C 64.698 25.428 65.415 24.649 65.59 23.683 L 66.02 21.213 L 66.21 20.113 L 66.3 19.613 C 66.297 19.58 66.297 19.546 66.3 19.513 C 66.349 19.378 66.444 19.264 66.57 19.193 C 67.649 19.074 68.736 19.041 69.82 19.093 L 70.42 19.093 C 70.494 19.107 70.565 19.134 70.63 19.173 C 70.788 19.232 70.917 19.351 70.99 19.503 L 71.76 23.623 L 71.76 23.683 C 71.95 24.58 72.639 25.288 73.53 25.503 C 75.088 25.912 76.587 26.521 77.99 27.313 L 78.04 27.313 C 78.827 27.755 79.798 27.7 80.53 27.173 L 82.6 25.683 L 83.6 24.933 L 83.92 24.713 C 83.967 24.684 84.017 24.66 84.07 24.643 C 84.281 24.554 84.519 24.554 84.73 24.643 C 85.228 25.059 85.703 25.503 86.15 25.973 C 86.7 26.513 87.59 27.353 87.54 27.363 C 87.675 27.581 87.714 27.845 87.65 28.093 C 87.634 28.156 87.61 28.216 87.58 28.273 C 87.58 28.273 87.58 28.333 87.58 28.363 L 87.41 28.613 L 86.69 29.663 L 85.25 31.773 C 84.798 32.437 84.771 33.302 85.18 33.993 C 86.041 35.409 86.714 36.932 87.18 38.523 L 87.18 38.573 C 87.392 39.323 88.021 39.881 88.79 40.003 L 91.88 40.513 L 92.65 40.643 L 92.84 40.643 L 92.91 40.643 L 93.05 40.643 C 93.23 40.706 93.391 40.813 93.52 40.953 C 93.533 40.85 93.533 40.746 93.52 40.643 C 93.541 40.745 93.541 40.851 93.52 40.953 C 93.631 41.13 93.69 41.334 93.69 41.543 L 93.62 43.013 L 93.54 44.783 C 93.54 44.903 93.54 45.133 93.54 45.173 C 93.543 45.213 93.543 45.253 93.54 45.293 C 93.512 45.367 93.475 45.438 93.43 45.503 C 93.345 45.627 93.227 45.724 93.09 45.783 C 92.817 45.864 92.535 45.911 92.25 45.923 L 88.74 46.413 C 87.801 46.538 87.02 47.198 86.74 48.103 L 86.69 48.273 C 86.21 49.805 85.538 51.27 84.69 52.633 C 84.16 53.497 84.179 54.589 84.74 55.433 L 84.82 55.553 L 86.23 57.673 L 86.94 58.733 L 87.11 58.993 C 87.11 58.993 87.11 58.993 87.11 58.993 C 87.113 59.013 87.113 59.033 87.11 59.053 C 87.01 59.353 87.48 58.823 85.77 60.493 L 84.86 61.383 L 84.63 61.603 L 84.53 61.703 C 84.488 61.72 84.441 61.72 84.4 61.703 L 80.99 59.503 C 80.045 58.834 78.8 58.768 77.79 59.333 C 76.425 60.107 74.967 60.702 73.45 61.103 C 72.273 61.37 71.371 62.316 71.16 63.503 L 70.71 66.013 L 70.49 67.263 L 70.44 67.553 C 70.44 67.553 70.44 67.553 70.44 67.553 C 70.25 67.553 71.1 67.553 68.66 67.553 L 66.9 67.553 C 66.9 67.553 66.9 67.553 66.9 67.553 C 66.9 67.553 66.9 67.553 66.9 67.553 L 66.85 67.263 L 66.63 66.003 L 66.18 63.493 C 65.977 62.341 65.122 61.411 63.99 61.113 C 62.472 60.712 61.013 60.113 59.65 59.333 C 58.639 58.753 57.383 58.812 56.43 59.483 L 54.34 60.953 L 53.34 61.693 L 52.99 61.903 C 52.961 61.914 52.929 61.914 52.9 61.903 L 52.8 61.813 L 52.57 61.583 L 51.67 60.683 C 49.95 58.973 50.52 59.533 50.43 59.343 C 50.43 59.343 50.43 59.343 50.43 59.343 C 50.43 59.343 50.43 59.343 50.43 59.343 L 50.6 59.093 L 51.34 58.093 L 52.81 56.013 C 53.484 55.062 53.547 53.806 52.97 52.793 C 52.194 51.431 51.602 49.971 51.21 48.453 C 50.921 47.319 50 46.457 48.85 46.243 L 48.79 46.243 L 45.37 45.503 L 44.78 45.423 L 44.64 45.423 C 44.592 45.486 44.526 45.532 44.45 45.553 C 44.22 45.604 43.979 45.572 43.77 45.463 C 43.38 45.293 43.02 45.173 42.77 45.643 C 42.629 45.958 42.611 46.315 42.72 46.643 C 42.886 47.173 43.242 47.621 43.72 47.903 C 44.037 48.076 44.372 48.214 44.72 48.313 L 45.83 48.683 L 47.9 49.343 C 48.135 50.928 48.568 52.477 49.19 53.953 L 47.92 55.503 L 47.13 56.453 L 46.93 56.693 C 46.848 56.786 46.772 56.883 46.7 56.983 C 46.526 57.227 46.379 57.488 46.26 57.763 C 45.767 58.913 45.767 60.214 46.26 61.363 C 46.384 61.658 46.539 61.939 46.72 62.203 C 46.887 62.442 47.071 62.669 47.27 62.883 L 48.12 63.883 L 48.98 64.883 L 49.42 65.363 C 49.648 65.607 49.899 65.828 50.17 66.023 C 51.633 67.063 53.541 67.238 55.17 66.483 C 55.331 66.409 55.488 66.325 55.64 66.233 L 56.01 66.003 L 57.11 65.283 L 58.22 64.543 L 58.75 64.833 C 59.553 65.213 60.378 65.547 61.22 65.833 L 61.42 67.083 L 61.62 68.343 L 61.67 68.673 C 61.67 68.853 61.74 69.033 61.79 69.203 C 61.889 69.549 62.023 69.884 62.19 70.203 C 62.877 71.53 64.082 72.514 65.52 72.923 C 66.131 73.077 66.76 73.148 67.39 73.133 L 68.67 73.133 L 69.95 73.133 C 70.2 73.133 70.28 73.133 70.73 73.133 C 71.105 73.113 71.476 73.056 71.84 72.963 C 73.319 72.572 74.571 71.588 75.3 70.243 C 75.48 69.926 75.627 69.59 75.74 69.243 C 75.8 69.063 75.84 68.873 75.88 68.693 L 75.95 68.363 L 76.19 67.113 L 76.37 66.163 C 77.266 65.883 78.144 65.549 79 65.163 L 79.81 65.753 L 80.81 66.503 L 81.08 66.703 C 81.24 66.813 81.41 66.923 81.58 67.013 C 81.926 67.207 82.291 67.365 82.67 67.483 C 84.206 67.969 85.874 67.799 87.28 67.013 C 87.855 66.67 88.38 66.249 88.84 65.763 L 89.75 64.873 L 90.66 63.983 L 90.89 63.763 L 90.99 63.503 L 91.2 63.283 C 91.47 62.975 91.708 62.64 91.91 62.283 C 92.732 60.866 92.931 59.172 92.46 57.603 C 92.342 57.221 92.184 56.853 91.99 56.503 C 91.9 56.323 91.78 56.153 91.68 55.983 L 91.49 55.703 L 90.77 54.653 L 90.32 53.993 C 90.694 53.245 91.027 52.477 91.32 51.693 L 92.12 51.553 L 93.38 51.333 L 93.71 51.273 C 93.91 51.273 94.11 51.193 94.31 51.133 C 94.705 51.02 95.087 50.866 95.45 50.673 C 96.926 49.898 98.013 48.543 98.45 46.933 C 98.612 46.279 98.683 45.606 98.66 44.933 L 98.66 41.553 C 98.634 41.144 98.567 40.739 98.46 40.343 C 98.021 38.738 96.934 37.387 95.46 36.613 C 95.097 36.42 94.715 36.266 94.32 36.153 C 94.12 36.093 93.92 36.053 93.72 36.013 L 93.38 35.953 L 92.12 35.743 L 91.27 35.603 C 90.98 34.796 90.646 34.004 90.27 33.233 L 90.62 32.713 L 91.38 31.663 L 91.57 31.403 L 91.67 31.253 L 91.84 30.993 C 92.057 30.646 92.238 30.277 92.38 29.893 C 92.955 28.328 92.846 26.594 92.08 25.113 C 91.887 24.758 91.659 24.423 91.4 24.113 L 90.99 23.643 L 90.76 23.413 L 89.87 22.503 L 88.99 21.503 L 88.76 21.273 L 88.63 21.143 L 88.4 20.933 C 88.092 20.653 87.757 20.405 87.4 20.193 C 86.325 19.574 85.086 19.298 83.85 19.403 C 83.231 19.456 82.623 19.604 82.05 19.843 C 81.57 20.054 81.114 20.315 80.69 20.623 L 78.99 21.793 C 78.323 21.447 77.607 21.14 76.84 20.873 L 76.72 20.133 L 76.51 18.873 L 76.44 18.503 C 76.44 18.293 76.36 18.093 76.3 17.893 C 76.185 17.488 76.027 17.096 75.83 16.723 C 75.023 15.222 73.635 14.119 71.99 13.673 C 71.577 13.574 71.155 13.517 70.73 13.503 L 67.36 13.503 C 67.11 13.503 67.05 13.503 66.53 13.503 C 66.108 13.528 65.689 13.595 65.28 13.703 C 63.627 14.156 62.234 15.27 61.43 16.783 C 61.245 17.147 61.098 17.529 60.99 17.923 C 60.93 18.123 60.89 18.333 60.84 18.533 L 60.78 18.863 L 60.56 20.123 L 60.44 20.813 C 59.72 21.08 59.013 21.377 58.32 21.703 L 57.75 21.313 L 56.7 20.593 L 56.41 20.393 C 56.23 20.283 56.06 20.163 55.87 20.073 C 55.501 19.873 55.112 19.712 54.71 19.593 C 53.09 19.109 51.342 19.315 49.88 20.163 C 49.523 20.376 49.188 20.624 48.88 20.903 L 48.65 21.113 L 48.52 21.243 L 48.28 21.503 L 47.39 22.413 L 46.5 23.333 C 46.005 23.809 45.577 24.351 45.23 24.943 C 44.423 26.393 44.253 28.113 44.76 29.693 C 44.884 30.083 45.048 30.458 45.25 30.813 C 45.35 30.993 45.46 31.163 45.58 31.323 L 45.78 31.593 L 46.53 32.593 L 47.08 33.343 C 46.698 34.166 46.364 35.011 46.08 35.873 L 44.56 36.203 L 43.36 36.503 C 42.765 36.669 42.204 36.937 41.7 37.293 C 40.786 37.938 40.106 38.86 39.76 39.923 C 39.609 40.385 39.528 40.867 39.52 41.353 C 39.505 41.563 39.505 41.773 39.52 41.983 L 39.62 42.363 Z M 73.04 48.263 C 71.411 49.633 69.231 50.152 67.16 49.663 C 65.058 49.161 63.286 47.756 62.32 45.823 C 62.18 45.544 62.023 45.273 61.85 45.013 C 61.697 44.757 61.512 44.522 61.3 44.313 C 60.89 43.856 60.293 43.613 59.68 43.653 C 59.014 43.722 58.431 44.13 58.14 44.733 C 57.965 45.112 57.857 45.518 57.82 45.933 C 57.791 46.439 57.849 46.946 57.99 47.433 C 58.538 49.371 59.603 51.123 61.07 52.503 C 62.579 53.932 64.474 54.889 66.52 55.253 C 73.347 56.427 79.641 51.306 79.88 44.383 C 80.516 41.413 79.826 38.313 77.99 35.893 C 76.081 33.36 73.212 31.725 70.06 31.373 C 66.892 31.017 63.71 31.911 61.19 33.863 C 58.682 35.811 56.983 38.618 56.42 41.743 C 56.377 42.413 56.651 43.065 57.16 43.503 C 57.89 44.003 58.54 43.333 59.08 42.573 C 60.665 40.285 62.833 38.462 65.36 37.293 C 68.114 36.127 71.306 36.856 73.28 39.103 C 75.1 41.237 75.542 44.223 74.42 46.793 C 74.031 47.342 73.57 47.836 73.05 48.263 L 73.04 48.263 Z"/>
</svg>